# xmcd
# Track frame offsets:
# 150
# 16192
# 34382
# 50715
# 67262
# 84489
# 102737
# 114428
# 134309
# 148530
# 163522
# 178821
# 194596
# 206977
# 221656
# 235155
#
# Disc length: 3339 seconds
# Revision: 0
# Processed by: cddbd v1.5PL3 Copyright (c) Steve Scherf et al.
# Submitted via: VisiTrax 2.9.9.209 - For more info visit www.synapsa.com
#
DISCID=fa0d0910
DTITLE=Various Artist - The Very Best Of Country Love-Disc 1
DYEAR=2003
DGENRE=Country
TTITLE0=Randy Travis - Forever And Ever, Amen
TTITLE1=Travis Tritt - Help Me Hold On
TTITLE2=Tracy Lawrence - Sticks And Stones
TTITLE3=Paul Brandt - I Do
TTITLE4=Neal McCoy - No Doubt About It
TTITLE5=John Michael Montgomery - I Love The Way You Love Me
TTITLE6=Holly Dunn - Are You Ever Gonna Love Me
TTITLE7=Clay Walker - This Woman And This Man
TTITLE8=Eddie Rabbitt - I Love A Rainy Night
TTITLE9=Highway 101 - Somewhere Tonight
TTITLE10=Michael Martin Murphey - A Long Line Of Love
TTITLE11=Daryle Singletary - Amen Kind Of Love
TTITLE12=Johnny Lee - Bet Your Heart On Me
TTITLE13=The Forester Sisters - I Fell In Love Again Last Night
TTITLE14=Conway Twitty - I Don't Know A Thing About Love (The Moon Song)
TTITLE15=Frizzell and West - You're The Reason God Made Oklahoma
EXTD=
EXTT0=
EXTT1=
EXTT2=
EXTT3=
EXTT4=
EXTT5=
EXTT6=
EXTT7=
EXTT8=
EXTT9=
EXTT10=
EXTT11=
EXTT12=
EXTT13=
EXTT14=
EXTT15=
PLAYORDER=
